# xmcd CD database file
#
# Track frame offsets:
#	150
#	2216
#	26745
#	47818
#	69934
#	92677
#	113043
#	113756
#	140135
#	163224
#	186339
#	212987
#	233307
#	234808
#	257599
#
# Disc length: 3780 seconds
#
# Revision: 7
# Processed by: cddbd v1.5.1PL0 Copyright (c) Steve Scherf et al.
# Submitted via: CDex 1.51
#
DISCID=c70ec20f
DTITLE=　CHEMISTRY - One×One
DYEAR=2004
DGENRE=JPop
TTITLE0=Intro-lude
TTITLE1=Us
TTITLE2=YOUR NAME NEVER GONE
TTITLE3=my Rivets
TTITLE4=This age
TTITLE5=Bound for Identity 〜dear friend〜
TTITLE6=〜Street Sounds at Naples, Italy〜
TTITLE7=meaning of tears
TTITLE8=Ordinary hero
TTITLE9=Now or Never／CHEMISTRY meets m-flo
TTITLE10=So in Vain
TTITLE11=赤い雲　白い星
TTITLE12=〜Interlude〜
TTITLE13=アシタヘカエル
TTITLE14=いとしい人
EXTD=YEAR: 2004
EXTT0=
EXTT1=
EXTT2=
EXTT3=
EXTT4=
EXTT5=
EXTT6=
EXTT7=
EXTT8=
EXTT9=
EXTT10=
EXTT11=
EXTT12=
EXTT13=
EXTT14=
PLAYORDER=
